<svg xmlns="http://www.w3.org/2000/svg" version="1.1" xmlns:xlink="http://www.w3.org/1999/xlink" xmlns:svgjs="http://svgjs.dev/svgjs" width="1440" height="80" preserveAspectRatio="none" viewBox="0 0 1440 80"><g mask="url(&quot;#SvgjsMask1073&quot;)" fill="none"><rect width="1440" height="80" x="0" y="0" fill="rgba(0, 0, 0, 1)"></rect><path d="M616.95 84C693.78 83.9 693.02 42.48 921.47 42.48 1149.91 42.48 1378.15 63.28 1530.5 63.28" stroke="rgba(51,121,194,0.58)" stroke-width="2"></path><path d="M66.97 86.05C184.56 85.86 299.12 16.74 532.21 16.71 765.3 16.68 764.83 26.71 997.45 26.71 1230.07 26.71 1346.35 16.71 1462.69 16.71" stroke="rgba(51,121,194,0.58)" stroke-width="2"></path><path d="M690.86 87.55C772.86 87.33 771.56 30.56 1013.87 30.56 1256.18 30.56 1498.11 68.14 1659.89 68.16" stroke="rgba(51,121,194,0.58)" stroke-width="2"></path><path d="M198.9 86.12C314.94 86.12 430.8 67.76 662.71 67.76 894.62 67.76 894.62 77.76 1126.52 77.76 1358.43 77.76 1474.35 67.76 1590.33 67.76" stroke="rgba(51,121,194,0.58)" stroke-width="2"></path><path d="M724.99 92.05C789.49 91.69 787.73 34.61 976.53 34.6 1165.33 34.59 1353.65 62.59 1479.61 62.6" stroke="rgba(51,121,194,0.58)" stroke-width="2"></path></g><defs><mask id="SvgjsMask1073"><rect width="1440" height="80" fill="#ffffff"></rect></mask></defs></svg>