<svg xmlns="http://www.w3.org/2000/svg" version="1.1" xmlns:xlink="http://www.w3.org/1999/xlink" xmlns:svgjs="http://svgjs.dev/svgjs" width="1440" height="80" preserveAspectRatio="none" viewBox="0 0 1440 80"><g mask="url(&quot;#SvgjsMask1144&quot;)" fill="none"><rect width="1440" height="80" x="0" y="0" fill="rgba(0, 0, 0, 1)"></rect><path d="M -22.87777242203476,58 C -8.48,51.8 20.32,29.2 49.12222757796524,27 C 77.92,24.8 92.32,51.8 121.12222757796525,47 C 149.92,42.2 164.32,-2.4 193.12222757796525,3 C 221.92,8.4 236.32,72.8 265.12222757796525,74 C 293.92,75.2 308.32,15.2 337.12222757796525,9 C 365.92,2.8 380.32,41.8 409.12222757796525,43 C 437.92,44.2 452.32,13.6 481.12222757796525,15 C 509.92,16.4 524.32,48.8 553.1222275779652,50 C 581.92,51.2 596.32,16.2 625.1222275779652,21 C 653.92,25.8 668.32,77.4 697.1222275779652,74 C 725.92,70.6 740.32,9.4 769.1222275779652,4 C 797.92,-1.4 812.32,42.8 841.1222275779652,47 C 869.92,51.2 884.32,24.4 913.1222275779652,25 C 941.92,25.6 956.32,47.2 985.1222275779652,50 C 1013.92,52.8 1028.32,36.6 1057.1222275779653,39 C 1085.92,41.4 1100.32,62 1129.1222275779653,62 C 1157.92,62 1172.32,42 1201.1222275779653,39 C 1229.92,36 1244.32,49.4 1273.1222275779653,47 C 1301.92,44.6 1316.32,24 1345.1222275779653,27 C 1373.92,30 1388.32,62.6 1417.1222275779653,62 C 1445.92,61.4 1484.55,28.2 1489.1222275779653,24 C 1493.7,19.8 1449.82,37.6 1440,41" stroke="rgba(51, 121, 194, 0.58)" stroke-width="2"></path><path d="M -95.35160696542061,16 C -80.95,24.8 -52.15,59.8 -23.351606965420608,60 C 5.45,60.2 19.85,15.2 48.64839303457939,17 C 77.45,18.8 91.85,69.2 120.64839303457939,69 C 149.45,68.8 163.85,19 192.64839303457939,16 C 221.45,13 235.85,56 264.6483930345794,54 C 293.45,52 307.85,4.4 336.6483930345794,6 C 365.45,7.6 379.85,55.6 408.6483930345794,62 C 437.45,68.4 451.85,40.2 480.6483930345794,38 C 509.45,35.8 523.85,58 552.6483930345794,51 C 581.45,44 595.85,0.8 624.6483930345794,3 C 653.45,5.2 667.85,59 696.6483930345794,62 C 725.45,65 739.85,21 768.6483930345794,18 C 797.45,15 811.85,49.2 840.6483930345794,47 C 869.45,44.8 883.85,5.6 912.6483930345794,7 C 941.45,8.4 955.85,50.8 984.6483930345794,54 C 1013.45,57.2 1027.85,20.4 1056.6483930345794,23 C 1085.45,25.6 1099.85,67.2 1128.6483930345794,67 C 1157.45,66.8 1171.85,21.8 1200.6483930345794,22 C 1229.45,22.2 1243.85,67 1272.6483930345794,68 C 1301.45,69 1315.85,29.6 1344.6483930345794,27 C 1373.45,24.4 1397.58,54.6 1416.6483930345794,55 C 1435.72,55.4 1435.33,34.2 1440,29" stroke="rgba(51, 121, 194, 0.58)" stroke-width="2"></path><path d="M -13.115111320900837,49 C 1.28,46.2 30.08,30.4 58.88488867909916,35 C 87.68,39.6 102.08,76.2 130.88488867909916,72 C 159.68,67.8 174.08,14.2 202.88488867909916,14 C 231.68,13.8 246.08,70 274.88488867909916,71 C 303.68,72 318.08,23.6 346.88488867909916,19 C 375.68,14.4 390.08,44 418.88488867909916,48 C 447.68,52 462.08,34.6 490.88488867909916,39 C 519.68,43.4 534.08,71.8 562.8848886790992,70 C 591.68,68.2 606.08,35 634.8848886790992,30 C 663.68,25 678.08,44.4 706.8848886790992,45 C 735.68,45.6 750.08,32 778.8848886790992,33 C 807.68,34 822.08,53 850.8848886790992,50 C 879.68,47 894.08,14.6 922.8848886790992,18 C 951.68,21.4 966.08,65 994.8848886790992,67 C 1023.68,69 1038.08,26.8 1066.8848886790993,28 C 1095.68,29.2 1110.08,71.6 1138.8848886790993,73 C 1167.68,74.4 1182.08,41.2 1210.8848886790993,35 C 1239.68,28.8 1254.08,47.6 1282.8848886790993,42 C 1311.68,36.4 1326.08,1.8 1354.8848886790993,7 C 1383.68,12.2 1398.08,67.8 1426.8848886790993,68 C 1455.68,68.2 1496.26,9.4 1498.8848886790993,8 C 1501.51,6.6 1451.78,50.4 1440,61" stroke="rgba(51, 121, 194, 0.58)" stroke-width="2"></path><path d="M -13.490201654115005,7 C 0.91,18 29.71,56.2 58.509798345884995,62 C 87.31,67.8 101.71,36.2 130.509798345885,36 C 159.31,35.8 173.71,60.6 202.509798345885,61 C 231.31,61.4 245.71,37.8 274.509798345885,38 C 303.31,38.2 317.71,66 346.509798345885,62 C 375.31,58 389.71,16.2 418.509798345885,18 C 447.31,19.8 461.71,69.8 490.509798345885,71 C 519.31,72.2 533.71,29.6 562.509798345885,24 C 591.31,18.4 605.71,43.4 634.509798345885,43 C 663.31,42.6 677.71,17.4 706.509798345885,22 C 735.31,26.6 749.71,69.2 778.509798345885,66 C 807.31,62.8 821.71,7.2 850.509798345885,6 C 879.31,4.8 893.71,54 922.509798345885,60 C 951.31,66 965.71,37.6 994.509798345885,36 C 1023.31,34.4 1037.71,54.6 1066.509798345885,52 C 1095.31,49.4 1109.71,24.4 1138.509798345885,23 C 1167.31,21.6 1181.71,42 1210.509798345885,45 C 1239.31,48 1253.71,34.8 1282.509798345885,38 C 1311.31,41.2 1325.71,63.8 1354.509798345885,61 C 1383.31,58.2 1397.71,26.2 1426.509798345885,24 C 1455.31,21.8 1495.81,48.6 1498.509798345885,50 C 1501.21,51.4 1451.7,34.8 1440,31" stroke="rgba(51, 121, 194, 0.58)" stroke-width="2"></path><path d="M -18.019521954863933,35 C -3.62,40.4 25.18,67.4 53.98047804513607,62 C 82.78,56.6 97.18,10.4 125.98047804513607,8 C 154.78,5.6 169.18,46.2 197.98047804513607,50 C 226.78,53.8 241.18,22.6 269.98047804513607,27 C 298.78,31.4 313.18,70.4 341.98047804513607,72 C 370.78,73.6 385.18,37.4 413.98047804513607,35 C 442.78,32.6 457.18,61 485.98047804513607,60 C 514.78,59 529.18,32 557.9804780451361,30 C 586.78,28 601.18,48.4 629.9804780451361,50 C 658.78,51.6 673.18,35.6 701.9804780451361,38 C 730.78,40.4 745.18,66 773.9804780451361,62 C 802.78,58 817.18,20.2 845.9804780451361,18 C 874.78,15.8 889.18,50.8 917.9804780451361,51 C 946.78,51.2 961.18,16.4 989.9804780451361,19 C 1018.78,21.6 1033.18,63.8 1061.9804780451361,64 C 1090.78,64.2 1105.18,19.4 1133.9804780451361,20 C 1162.78,20.6 1177.18,66.2 1205.9804780451361,67 C 1234.78,67.8 1249.18,28.6 1277.9804780451361,24 C 1306.78,19.4 1321.18,41.6 1349.9804780451361,44 C 1378.78,46.4 1393.18,30.6 1421.9804780451361,36 C 1450.78,41.4 1490.38,74.8 1493.9804780451361,71 C 1497.58,67.2 1450.8,27.8 1440,17" stroke="rgba(51, 121, 194, 0.58)" stroke-width="2"></path><path d="M -116.22619865663373,48 C -101.83,42.6 -73.03,22.4 -44.226198656633734,21 C -15.43,19.6 -1.03,42 27.773801343366266,41 C 56.57,40 70.97,15.8 99.77380134336627,16 C 128.57,16.2 142.97,38.8 171.77380134336627,42 C 200.57,45.2 214.97,27.4 243.77380134336627,32 C 272.57,36.6 286.97,68.6 315.77380134336624,65 C 344.57,61.4 358.97,14.6 387.77380134336624,14 C 416.57,13.4 430.97,61.6 459.77380134336624,62 C 488.57,62.4 502.97,15 531.7738013433662,16 C 560.57,17 574.97,66.8 603.7738013433662,67 C 632.57,67.2 646.97,18 675.7738013433662,17 C 704.57,16 718.97,62.6 747.7738013433662,62 C 776.57,61.4 790.97,11.8 819.7738013433662,14 C 848.57,16.2 862.97,73 891.7738013433662,73 C 920.57,73 934.97,14.2 963.7738013433662,14 C 992.57,13.8 1006.97,73.6 1035.7738013433664,72 C 1064.57,70.4 1078.97,10 1107.7738013433664,6 C 1136.57,2 1150.97,46.2 1179.7738013433664,52 C 1208.57,57.8 1222.97,36.4 1251.7738013433664,35 C 1280.57,33.6 1294.97,44.2 1323.7738013433664,45 C 1352.57,45.8 1372.53,32.6 1395.7738013433664,39 C 1419.02,45.4 1431.15,69.4 1440,77" stroke="rgba(51, 121, 194, 0.58)" stroke-width="2"></path></g><defs><mask id="SvgjsMask1144"><rect width="1440" height="80" fill="#ffffff"></rect></mask></defs></svg>